# xmcd
#
# Track frame offsets: 
#        150
#        11815
#        30505
#        42510
#        54157
#        68487
#        80287
#        93165
#        109160
#        122312
#        134960
#        155627
#        168782
#        186692
#        200357
#
# Disc length: 2833 seconds
#
# Revision: 2
# Processed by: cddbd v1.5.2PL0 Copyright (c) Steve Scherf et al.
# Submitted via: ExactAudioCopy v0.95a5
#
DISCID=c40b0f0f
DTITLE=Various Artist - Home Of The Blues
DYEAR=1998
DGENRE=Blues
TTITLE0=B.B. King - Paying The Cost To Be the Boss
TTITLE1=Bobby Bland - Stormy Monday Blues
TTITLE2=Little Milton - Grits Ain't Groceries
TTITLE3=Etta James - I'd Rather Go Blind
TTITLE4=Sonny Boy Williamson - Help Me
TTITLE5=Junior Parker - I Need Love So Bad
TTITLE6=Little Walter - Everything's Gonna Be Aright
TTITLE7=Brownie McGhee and Sonny Terry - I Couldn't Believe My Ears
TTITLE8=Slim Harpo - Baby, Scratch My Back
TTITLE9=Jimmy Rogers - Walking By Myself
TTITLE10=Bo Diddley - I Can Tell
TTITLE11=Howlin' Wolf - I Ain't Superstitious
TTITLE12=Buddy Guy - Worried Mind
TTITLE13=John Lee Hooker - One Bourbon, One Scotch and One Beer
TTITLE14=Muddy Waters - You Need Love
EXTD=
EXTT0=
EXTT1=
EXTT2=
EXTT3=
EXTT4=
EXTT5=
EXTT6=
EXTT7=
EXTT8=
EXTT9=
EXTT10=
EXTT11=
EXTT12=
EXTT13=
EXTT14=
PLAYORDER=
